<svg
  width="61"
  height="61"
  viewBox="0 0 61 61"
  fill="#10b981"
  xmlns="http://www.w3.org/2000/svg"
>
  <path
    d="M0.726562 2.54004C0.726562 1.43547 1.62199 0.540039 2.72656 0.540039H19.1971C20.3017 0.540039 21.1972 1.43547 21.1972 2.54004V16.1871C21.1972 17.2917 20.3017 18.1871 19.1972 18.1871H2.72656C1.62199 18.1871 0.726562 17.2917 0.726562 16.1871V2.54004Z" />
  <path
    d="M7.61627 46.5929C7.30232 46.5156 6.97433 46.5156 6.66038 46.5928L2.2487 47.6783C1.35486 47.8983 0.726562 48.6999 0.726562 49.6204V58.5399C0.726562 59.6445 1.62199 60.5399 2.72656 60.5399H19.1971C20.3017 60.5399 21.1972 59.6445 21.1972 58.5399V48.2463C21.1972 46.6816 19.4814 45.7229 18.1489 46.543L15.795 47.9916C15.3388 48.2724 14.7889 48.3584 14.2687 48.2304L7.61627 46.5929Z" />
  <path
    d="M0.726562 41.8657C0.726562 43.1638 1.94394 44.1179 3.20442 43.8078L6.66041 42.9574C6.97434 42.8802 7.30231 42.8802 7.61624 42.9575L13.6771 44.4491C14.1972 44.5772 14.747 44.4912 15.2032 44.2105L20.2453 41.1079C20.8368 40.7439 21.1972 40.0991 21.1972 39.4045V24.1869C21.1972 23.0823 20.3017 22.1869 19.1972 22.1869H2.72656C1.62199 22.1869 0.726562 23.0823 0.726562 24.1869V41.8657ZMnan nanL10.9619 28.7751C12.9724 28.7751 14.6089 30.4116 14.6089 32.4222C14.6089 34.4328 12.9724 36.0692 10.9619 36.0692C8.95127 36.0692 7.3148 34.4328 7.3148 32.4222C7.3148 30.4116 8.95127 28.7751 10.9619 28.7751Lnan nanLnan nanZ" />
  <path
    d="M25.1973 42.0697C25.1973 40.9651 26.0927 40.0697 27.1973 40.0697H58.7267C59.8312 40.0697 60.7267 40.9651 60.7267 42.0697V58.5403C60.7267 59.6449 59.8312 60.5403 58.7267 60.5403H27.1973C26.0927 60.5403 25.1973 59.6449 25.1973 58.5403V42.0697Z" />
  <path
    d="M42.9627 20.305C44.587 20.305 45.9038 18.9882 45.9038 17.3638C45.9038 15.7394 44.587 14.4226 42.9627 14.4226C41.3383 14.4226 40.0215 15.7394 40.0215 17.3638C40.0215 18.9882 41.3383 20.305 42.9627 20.305Z" />
  <path
    d="M27.1973 0.540039C26.0927 0.540039 25.1973 1.43547 25.1973 2.54004V34.0695C25.1973 35.174 26.0927 36.0695 27.1973 36.0695H31.6679C32.7724 36.0695 33.6679 35.174 33.6679 34.0695V28.8977C33.6679 26.5684 34.5993 24.453 36.1094 22.9036C36.9699 22.0207 37.2108 20.5866 36.8173 19.4182C35.4897 15.4757 38.3271 10.893 42.962 10.893C47.5997 10.893 50.4326 15.4772 49.1063 19.418C48.7131 20.5866 48.954 22.0207 49.8146 22.9036C51.3247 24.453 52.2561 26.5684 52.2561 28.8977V34.0695C52.2561 35.174 53.1515 36.0695 54.2561 36.0695H58.7267C59.8312 36.0695 60.7267 35.174 60.7267 34.0695V2.54004C60.7267 1.43547 59.8312 0.540039 58.7267 0.540039H27.1973Z" />
  <path
    d="M37.1973 28.8975V36.0693H48.7267V28.8975C48.7267 26.1057 46.4549 23.834 43.6631 23.834H42.2608C39.469 23.834 37.1973 26.1057 37.1973 28.8975V28.8975Z" />
</svg>