<svg
  width="61"
  height="62"
  viewBox="0 0 61 62"
  fill="#EF4444"
  xmlns="http://www.w3.org/2000/svg"
>
  <path
    d="M26.9347 59.1948C25.6944 60.4218 24.0201 61.11 22.2754 61.11C20.5307 61.11 18.8564 60.4218 17.6161 59.1948L2.41087 43.9896C1.18385 42.7492 0.495632 41.075 0.495632 39.3303C0.495632 37.5855 1.18385 35.9113 2.41087 34.6709L34.4939 2.47927C35.2306 1.73274 36.1367 1.17507 37.135 0.853626C38.1334 0.532183 39.1946 0.45647 40.2285 0.632917L53.2615 2.80509C54.6173 3.03711 55.8678 3.68404 56.8404 4.65667C57.813 5.62931 58.46 6.87973 58.692 8.23554L60.8642 21.2686C61.0406 22.3025 60.9649 23.3637 60.6434 24.362C60.322 25.3604 59.7643 26.2664 59.0178 27.0031L26.9347 59.1948ZM46.202 19.7264C46.202 18.8671 45.9472 18.0272 45.4698 17.3128C44.9924 16.5983 44.3139 16.0415 43.5201 15.7127C42.7263 15.3839 41.8528 15.2978 41.0101 15.4655C40.1673 15.6331 39.3933 16.0469 38.7857 16.6544C38.1781 17.262 37.7644 18.0361 37.5967 18.8788C37.4291 19.7215 37.5151 20.595 37.8439 21.3889C38.1728 22.1827 38.7296 22.8612 39.444 23.3386C40.1584 23.8159 40.9984 24.0707 41.8576 24.0707C43.0098 24.0707 44.1148 23.613 44.9295 22.7983C45.7443 21.9836 46.202 20.8785 46.202 19.7264Z" />
</svg>