<svg
  width="61"
  height="61"
  viewBox="0 0 61 61"
  fill="#8358FF"
  xmlns="http://www.w3.org/2000/svg"
>
  <path
    d="M25.2181 9.65078C25.2181 6.41992 27.8466 3.79141 31.0775 3.79141H33.1053L32.4936 2.09102C32.1496 1.13477 31.2484 0.540039 30.288 0.540039C30.0218 0.540039 29.7511 0.585742 29.4865 0.68207L8.99594 8.14C7.77777 8.58344 7.15082 9.93145 7.59684 11.1487L8.67953 14.1039H25.2181V9.65078Z" />
  <path
    d="M31.0781 7.30701C29.7837 7.30701 28.7344 8.3563 28.7344 9.65076V14.1039H49.2422V9.65076C49.2422 8.3563 48.1929 7.30701 46.8984 7.30701H31.0781Z" />
  <path
    d="M55.4531 47.9125H47.25C42.4037 47.9125 38.4609 43.9697 38.4609 39.1234C38.4609 34.2771 42.4037 30.3344 47.25 30.3344H55.4531V22.307C55.4531 19.7182 53.3544 17.6195 50.7656 17.6195H5.41406C2.82527 17.6195 0.726562 19.7182 0.726562 22.307V55.8525C0.726562 58.4413 2.82527 60.54 5.41406 60.54H50.7656C53.3544 60.54 55.4531 58.4413 55.4531 55.8525V47.9125Z" />
  <path
    d="M58.9688 33.85H47.25C44.3422 33.85 41.9766 36.2156 41.9766 39.1234C41.9766 42.0312 44.3422 44.3969 47.25 44.3969H58.9688C59.938 44.3969 60.7266 43.6083 60.7266 42.639V35.6078C60.7266 34.6385 59.938 33.85 58.9688 33.85ZM47.25 40.8812C46.2792 40.8812 45.4922 40.0942 45.4922 39.1234C45.4922 38.1526 46.2792 37.3656 47.25 37.3656C48.2208 37.3656 49.0078 38.1526 49.0078 39.1234C49.0078 40.0942 48.2208 40.8812 47.25 40.8812Z" />
</svg>